HIERARCHY
ROOT Hips
{
	OFFSET 0.000000 0.000000 0.000000
	CHANNELS 6 Xposition Yposition Zposition Zrotation Yrotation Xrotation 
	JOINT LHipJoint
	{
		OFFSET 0.000000 0.000000 0.000000
		CHANNELS 3 Zrotation Yrotation Xrotation
		JOINT LeftUpLeg
		{
			OFFSET 1.363060 -1.794630 0.839290
			CHANNELS 3 Zrotation Yrotation Xrotation
			JOINT LeftLeg
			{
				OFFSET 2.448110 -6.726130 0.000000
				CHANNELS 3 Zrotation Yrotation Xrotation
				JOINT LeftFoot
				{
					OFFSET 2.562200 -7.039590 0.000000
					CHANNELS 3 Zrotation Yrotation Xrotation
					JOINT LeftToeBase
					{
						OFFSET 0.157640 -0.433110 2.322550
						CHANNELS 3 Zrotation Yrotation Xrotation
						End Site
						{
							OFFSET 0.000000 0.000000 0.000000
						}
					}
				}
			}
		}
	}
	JOINT RHipJoint
	{
		OFFSET 0.000000 0.000000 0.000000
		CHANNELS 3 Zrotation Yrotation Xrotation
		JOINT RightUpLeg
		{
			OFFSET -1.305520 -1.794630 0.839290
			CHANNELS 3 Zrotation Yrotation Xrotation
			JOINT RightLeg
			{
				OFFSET -2.542530 -6.985550 0.000000
				CHANNELS 3 Zrotation Yrotation Xrotation
				JOINT RightFoot
				{
					OFFSET -2.568260 -7.056230 0.000000
					CHANNELS 3 Zrotation Yrotation Xrotation
					JOINT RightToeBase
					{
						OFFSET -0.164730 -0.452590 2.363150
						CHANNELS 3 Zrotation Yrotation Xrotation
						End Site
						{
							OFFSET 0.000000 0.000000 0.000000
						}
					}
				}
			}
		}
	}
	JOINT LowerBack
	{
		OFFSET 0.000000 0.000000 0.000000
		CHANNELS 3 Zrotation Yrotation Xrotation
		JOINT Spine
		{
			OFFSET 0.028270 2.035590 -0.193380
			CHANNELS 3 Zrotation Yrotation Xrotation
			JOINT Spine1
			{
				OFFSET 0.056720 2.048850 -0.042750
				CHANNELS 3 Zrotation Yrotation Xrotation
				JOINT Neck
				{
					OFFSET 0.000000 0.000000 0.000000
					CHANNELS 3 Zrotation Yrotation Xrotation
					JOINT Neck1
					{
						OFFSET -0.054170 1.746240 0.172020
						CHANNELS 3 Zrotation Yrotation Xrotation
						JOINT Head
						{
							OFFSET 0.104070 1.761360 -0.123970
							CHANNELS 3 Zrotation Yrotation Xrotation
							End Site
							{
								OFFSET 0.000000 0.000000 0.000000
							}
						}
					}
				}
				JOINT LeftShoulder
				{
					OFFSET 0.000000 0.000000 0.000000
					CHANNELS 3 Zrotation Yrotation Xrotation
					JOINT LeftArm
					{
						OFFSET 3.362410 1.200890 -0.311210
						CHANNELS 3 Zrotation Yrotation Xrotation
						JOINT LeftForeArm
						{
							OFFSET 4.983000 -0.000000 -0.000000
							CHANNELS 3 Zrotation Yrotation Xrotation
							JOINT LeftHand
							{
								OFFSET 3.483560 -0.000000 -0.000000
								CHANNELS 3 Zrotation Yrotation Xrotation
								JOINT LeftFingerBase
								{
									OFFSET 0.000000 0.000000 0.000000
									CHANNELS 3 Zrotation Yrotation Xrotation
									JOINT LeftHandIndex1
									{
										OFFSET 0.715260 -0.000000 -0.000000
										CHANNELS 3 Zrotation Yrotation Xrotation
										End Site
										{
											OFFSET 0.000000 0.000000 0.000000
										}
									}
								}
								JOINT LThumb
								{
									OFFSET 0.000000 0.000000 0.000000
									CHANNELS 3 Zrotation Yrotation Xrotation
									End Site
									{
										OFFSET 0.000000 0.000000 0.000000
									}
								}
							}
						}
					}
				}
				JOINT RightShoulder
				{
					OFFSET 0.000000 0.000000 0.000000
					CHANNELS 3 Zrotation Yrotation Xrotation
					JOINT RightArm
					{
						OFFSET -3.136600 1.374050 -0.404650
						CHANNELS 3 Zrotation Yrotation Xrotation
						JOINT RightForeArm
						{
							OFFSET -5.241900 -0.000000 -0.000000
							CHANNELS 3 Zrotation Yrotation Xrotation
							JOINT RightHand
							{
								OFFSET -3.444170 -0.000000 -0.000000
								CHANNELS 3 Zrotation Yrotation Xrotation
								JOINT RightFingerBase
								{
									OFFSET 0.000000 0.000000 0.000000
									CHANNELS 3 Zrotation Yrotation Xrotation
									JOINT RightHandIndex1
									{
										OFFSET -0.622530 -0.000000 -0.000000
										CHANNELS 3 Zrotation Yrotation Xrotation
										End Site
										{
											OFFSET 0.000000 0.000000 0.000000
										}
									}
								}
								JOINT RThumb
								{
									OFFSET 0.000000 0.000000 0.000000
									CHANNELS 3 Zrotation Yrotation Xrotation
									End Site
									{
										OFFSET 0.000000 0.000000 0.000000
									}
								}
							}
						}
					}
				}
			}
		}
	}
}
MOTION
Frames: 9
Frame Time: 0.033333
1.241677 19.767099 -13.113045 91.675840 -32.862883 -32.602419 -106.832170 -44.019302 62.063273 12.636528 14.236563 -44.537984 -49.364485 63.206528 -60.435966 21.573647 2.007451 29.360885 5.128642 1.270253 -72.214524 26.861918 -13.570652 -103.736856 69.821994 -66.713413 -116.165441 118.900567 -63.861826 -116.883792 36.122645 -16.240653 3.401063 -0.789952 -0.065150 -83.390438 -104.974732 65.316369 -19.551433 -169.673748 73.821983 -169.549252 -139.147101 67.938433 -156.464963 14.098749 14.094771 13.484862 12.416879 -14.199308 -1.773464 -0.066003 0.016904 0.077736 99.277033 34.310423 -3.190766 -62.893812 57.252564 -112.351411 -107.643772 35.799906 171.032990 -17.843033 11.234188 -48.182577 33.757009 4.408872 -4.333877 0.086955 -0.185004 0.147896 0.125811 0.122384 -0.033909 61.907475 79.422204 84.706698 -58.792888 72.287739 25.913662 -56.580721 -51.380598 92.912365 9.392149 23.975024 17.730180 18.229635 -44.769756 0.365421 0.058647 -0.027862 -0.008530 -0.135319 0.026404 -0.047539 
1.209512 20.257496 -12.532044 91.624432 -32.582086 -32.946720 -105.060957 -43.192666 59.545174 15.085324 14.999094 -44.643279 -52.885409 65.628670 -64.138531 11.303505 -2.055735 26.158727 4.657099 1.037973 -68.514593 26.180273 -13.675838 -102.883198 70.916202 -65.225575 -118.767650 115.383093 -67.728930 -118.322964 37.370205 -11.302353 -1.152457 -0.719069 -0.027679 -83.675024 -102.036053 65.071050 -14.406431 -165.812720 74.858374 -165.820331 -138.095489 65.208362 -154.865809 14.028327 16.853896 12.074728 19.874384 -13.311930 -3.474782 0.034263 -0.015968 -0.029305 99.557813 31.776666 -2.334634 -59.337924 55.620477 -115.258929 -113.661042 36.327967 164.467016 -12.873147 4.810382 -46.004803 28.813940 0.941387 -5.840880 -0.084271 -0.074328 -0.009767 0.072019 -0.028380 0.005368 53.195569 78.795937 78.411383 -63.758583 65.731385 19.925263 -86.085779 -65.094572 119.120653 -2.633371 31.544428 16.288805 20.643495 -47.940788 15.725035 -0.068895 0.058811 0.020535 0.019298 0.027857 -0.097792 
1.176639 20.588713 -11.980100 91.011626 -32.761882 -32.716961 -104.455748 -41.984021 59.486420 19.713148 19.026336 -45.746260 -61.617404 65.580044 -69.550215 6.015217 -0.218566 24.350511 4.297891 0.765569 -66.397330 27.930683 -13.883117 -105.416235 67.186904 -67.091302 -113.582127 115.497305 -69.142694 -124.149386 35.358114 -7.552768 1.351829 -0.254494 0.026419 -82.658288 -97.133814 64.488970 -7.925422 -162.557221 75.537136 -161.876394 -137.572641 64.473335 -153.626141 12.414529 13.942475 10.857534 20.790195 -15.781477 -2.284271 0.057241 0.015637 0.069048 102.242167 32.138872 1.807594 -51.941108 49.922838 -116.083015 -115.741000 36.489210 163.826998 -8.827463 -4.786574 -44.669765 29.327090 -1.685231 -9.850994 0.062707 0.083942 0.051580 0.046515 0.207714 -0.143803 47.567712 79.431266 73.705899 -65.025567 60.611842 17.990302 -116.614824 -65.221709 145.579019 -6.787272 40.382782 17.270349 22.396681 -54.576589 26.483225 -0.086024 0.152431 -0.132418 -0.134670 0.022560 -0.073690 
1.142467 20.741837 -11.434703 90.992271 -32.962951 -33.212284 -105.930442 -40.028151 60.662028 26.366297 24.123055 -45.846981 -70.216441 65.901539 -73.840178 0.557142 1.100805 21.126135 3.839084 0.633191 -64.098737 29.284466 -14.844531 -106.560497 68.727821 -68.481511 -111.605451 105.210033 -68.313326 -117.195560 34.754165 -5.307298 -3.336775 0.405816 0.154412 -82.223659 -92.420339 64.416368 -1.117483 -158.642333 77.097346 -157.524729 -139.471649 63.629333 -155.164406 12.181939 13.739290 10.252561 19.130846 -10.824898 1.779811 0.125087 0.016491 0.079386 105.437629 30.467418 4.523474 -46.723315 45.491062 -114.893580 -111.544942 35.426849 164.591693 -7.011277 -10.190617 -38.174155 32.141814 -0.512312 -16.259085 -0.043349 -0.082044 -0.009484 0.041980 0.065977 -0.073034 40.241890 79.450004 66.617357 -69.107379 57.830222 13.979849 -135.721837 -62.246121 163.825180 -22.244218 51.372794 7.531321 36.249947 -49.578594 21.002327 -0.184600 0.029112 -0.104097 -0.004781 -0.154458 -0.124710 
1.112442 20.712561 -10.887854 92.097331 -33.739557 -34.112064 -105.424476 -38.765113 60.742027 29.898252 27.201335 -47.891501 -72.765254 66.766764 -75.015353 -0.338174 1.013024 23.877184 3.440942 0.544405 -64.257661 30.359792 -14.784447 -107.772440 68.783089 -71.348919 -107.474822 100.652342 -65.195028 -115.139552 42.235397 -2.158502 1.309797 1.079039 0.289401 -82.965708 -92.530534 63.654631 -1.116132 -161.899218 77.037058 -161.663572 -141.564925 63.637845 -156.873980 12.175787 10.813202 6.736347 12.868230 -10.937783 -1.470975 0.181290 -0.050426 0.012817 105.969333 30.977626 4.465669 -38.848940 39.271588 -113.729169 -104.758623 35.415747 166.327343 2.580834 -9.436306 -29.057032 27.477307 6.025338 -15.037982 -0.181508 -0.094497 0.106058 -0.030240 0.160155 -0.081024 29.401038 80.027629 55.832174 -74.016841 55.204710 9.397138 -140.844754 -61.470818 169.318332 -35.777422 53.086722 -10.116193 40.436430 -52.107903 14.076324 -0.076909 0.076735 -0.081804 -0.159672 -0.135169 -0.077031 
1.082460 20.494453 -10.347319 93.441181 -34.564457 -34.980875 -105.755362 -37.540181 60.791623 33.827421 31.067766 -48.116122 -75.764981 66.018570 -75.909794 -0.934181 1.244370 24.799599 3.348862 0.563148 -64.829746 30.451737 -14.821865 -107.007708 79.431442 -74.612913 -113.406772 99.804684 -59.952332 -108.982461 47.943499 1.296161 2.532043 1.619221 0.460740 -83.782247 -92.614572 63.836283 0.599428 -164.468802 76.794145 -163.929064 -141.735289 63.085572 -156.257024 12.430357 6.381308 5.802456 9.047855 -11.024288 -2.765365 0.077237 -0.192955 0.199213 108.050027 30.841324 3.981154 -34.512736 33.957597 -111.835589 -97.019827 32.077677 165.435083 4.291213 -13.307006 -24.219388 29.376900 12.721630 -11.033019 -0.167258 -0.046425 0.139417 0.156272 0.080970 -0.078210 18.390287 80.411101 43.313159 -76.123767 54.678044 6.376458 -142.328979 -61.826386 172.923397 -43.847183 53.040124 -26.073396 38.994820 -48.907398 16.891774 -0.063444 0.069700 -0.088214 -0.096807 -0.103595 -0.164487 
1.045205 20.081146 -9.814279 94.177676 -35.121428 -34.340502 -105.987352 -36.595799 61.331924 37.678572 33.499480 -47.171044 -80.131394 61.915617 -78.894680 3.728528 0.289387 23.937444 2.896476 0.357553 -64.824562 29.784789 -14.088328 -106.921388 96.140892 -77.658093 -127.493507 100.090210 -54.908688 -103.437768 47.573446 3.483761 2.150947 2.265705 0.668455 -82.998783 -93.289174 62.410972 2.363038 -169.522410 74.380944 -168.375777 -141.889518 63.192291 -154.481560 15.405626 10.116081 6.096894 4.335164 -6.925615 0.235375 0.167859 -0.072641 0.179888 107.163360 28.535435 2.149460 -30.907729 33.361407 -112.941758 -95.956963 32.859550 164.543137 5.962055 -17.737456 -22.647651 23.584224 20.594702 -21.067801 -0.090519 -0.141051 0.154787 0.034061 0.160458 -0.125517 6.351261 79.362611 29.487373 -76.657846 53.658760 5.039653 -139.097681 -61.885908 166.663222 -53.973701 53.083507 -37.750942 59.348302 -56.710434 1.530136 -0.123230 0.124623 -0.041103 -0.042598 -0.119754 -0.015124 
1.001141 19.482195 -9.283445 94.295809 -35.450029 -34.650500 -106.127475 -36.246386 61.985633 40.219828 35.986406 -45.679821 -80.044657 58.515961 -78.544361 7.263943 -2.736348 19.007311 2.561791 0.450320 -66.242770 29.690020 -14.963033 -107.860380 124.378090 -81.346177 -151.962697 102.594280 -49.444961 -103.013569 41.615128 2.313968 2.335525 2.183435 0.734370 -83.036875 -93.934399 64.251205 3.644229 -172.278183 73.762497 -170.720404 -141.600566 62.656286 -152.009041 16.529884 12.019017 3.709465 4.888136 -1.452771 9.598987 0.076822 -0.115100 0.063220 107.676653 26.818819 -0.670247 -27.655091 34.903283 -112.565037 -98.434619 32.157050 161.960546 3.593157 -32.153616 -27.915242 18.906582 23.609826 -31.121033 -0.061965 -0.123452 0.053538 0.070473 0.046076 -0.132975 0.836184 77.743712 20.651887 -75.851181 53.197347 5.021011 -136.995764 -61.086144 161.321906 -54.065501 53.225364 -39.171880 65.319708 -64.405439 7.744604 -0.101676 0.179160 -0.106681 -0.075316 -0.073813 -0.096780 
0.952168 18.696882 -8.762804 94.976608 -34.913485 -35.049264 -107.611782 -36.027656 62.357391 42.884168 38.563460 -43.678105 -79.902820 56.054157 -79.088106 11.487803 -2.827012 20.260188 2.211576 0.472552 -67.844169 29.112248 -15.837233 -108.154819 148.397386 -80.936248 -172.360260 103.638831 -45.838658 -104.193262 37.224600 2.453662 6.147079 2.577457 0.760118 -83.219291 -92.434035 63.020297 6.804800 -177.423658 72.779683 -176.011230 -142.758606 61.351363 -152.127872 15.553290 17.718319 -0.251655 5.450724 6.046221 12.639415 -0.014449 -0.077991 0.161938 110.959374 25.826560 -2.152522 -24.577654 37.198049 -106.752839 -99.783302 31.686475 161.818519 5.842590 -49.214866 -38.481794 3.551757 30.146480 -52.576018 -0.093207 -0.148755 0.177543 0.202273 0.152218 -0.053972 -1.190379 77.899260 16.618910 -72.970831 55.702827 6.546440 -137.971118 -58.245246 163.851741 -48.419855 55.580861 -35.964024 86.527805 -66.913765 3.417570 -0.070343 0.065058 -0.004731 -0.084055 -0.064837 -0.128468 
